<?xml version="1.0" encoding="UTF-8"?>
<svg width="179.12mm" height="179.12mm" version="1.1" viewBox="0 0 179.12 179.12"
     xml:space="preserve" xmlns="http://www.w3.org/2000/svg">
    <g transform="translate(-24.564 -70.348)"><g transform="translate(82.06 -203.52)">
        <path d="m109.68 396.81c0.95094 1.2851 1.3622 2.4291 1.594 5.8208 0.043 0.6285 0.1467 1.1539 0.21313 1.8521 0.0736 0.77331 0.0449 1.2725 0.0449 2.1167 7e-5 1.078 0.031 1.7007-0.0104 2.6458-0.0326 0.74369-0.16889 1.3375-0.23151 2.1167-0.23027 2.8648-0.50559 5.931-1.2782 8.7312-1.0496 3.8041-2.3261 7.7283-3.883 11.377-1.359 3.185-2.414 6.8816-5.974 8.2999-1.013 0.40358-2.042 0.6576-3.175 0.62736-3.8843-0.10365-7.8838-2.1964-11.642-3.3642-10.928-3.3962-21.754-6.4048-32.808-9.1683-18.847-4.7117-38.03-8.5147-57.415-11.719-5.3316-0.88139-10.75-1.9463-16.14-2.3798-2.946-0.23697-5.7496-0.68836-8.2021-2.4155-3.8503-2.7116-6.3077-9.3144-8.4977-13.482-4.508-8.5792-7.6596-18.676-8.8893-28.31-1.0422-8.1657-1.2179-16.766 0.40279-24.871 1.3337-6.6692 3.1441-13.16 6.2018-19.315 0.54882-1.1048 1.1047-2.0807 1.7057-3.175 3.0883-5.6233 6.6713-10.605 11.193-15.08 5.4787-5.4223 12.037-9.9755 19.05-13.288 7.6672-3.6216 15.698-5.4706 24.077-6.8424 1.4684-0.24041 3.3088-0.43386 4.7625-0.49752 0.63063-0.0276 1.1944-0.0104 1.8521-0.0104 5.9285-3.9e-4 11.922-0.22177 17.992 0.91543 4.6717 0.87532 9.3809 1.9648 13.758 3.7015 4.5241 1.7949 8.9644 4.0944 12.965 6.7601 7.9742 5.3142 14.615 11.878 19.762 19.844 1.8973 2.9365 3.7224 6.051 5.1088 9.2604 0.4845 1.1216 1.0588 2.5777 1.2568 3.7042 0.39436 2.2441 0.56231 2.6331 0.8058 3.175 0.0695 0.15465 0.19148 0.55692 0.67636 1.3084 0.43026 0.66682 0.86733 0.93498 0.993 1.0165 0.71191 0.46172 3.0644 0.60814 3.6062 3.2316 0.45292 2.193 0.88546 4.5289 1.3242 6.879 0.72637 3.8913 1.4264 7.7838 2.1855 11.642 1.5594 7.9255 3.1476 16.535 4.6598 24.606 0.54281 2.8971 1.4469 7.9061 1.8027 10.583 0.15968 1.2014 0.392 2.257 0.14494 3.1358-0.44729 1.5911-2.9647 0.82393-4.4906 0.64389-0.6713-0.0792-1.189-0.0715-1.8521-0.0757-6.8801-0.0442-14.224-1.1584-21.431-2.1881-5.3664-0.76674-9.9808-1.1437-14.288-2.4433-1.2246-0.36953-2.3669-0.70248-3.4396-1.0875-0.19868-0.0713-0.65502-0.26196-1.0583-0.29399-0.78192-0.0621-1.021 0.16791-1.3229 0.24784-0.56606 0.14986-1.9684 8.7e-4 -3.4396-0.0527-1.4917-0.0543-3.2688-0.48652-4.7625-0.79579-4.9544-1.0258-9.6727-2.5051-14.288-4.8288-6.5396-3.2929-11.925-7.8476-16.213-13.957-0.88087-1.2548-1.5659-2.3423-2.2996-3.7042-1.1347-2.1061-1.3389-4.1207-1.5503-6.35-0.21727-2.2909 0.07-4.0765 0.67514-6.0854 0.46392-1.54 1.1964-2.9259 2.1344-4.2333 1.5665-2.1834 4.0078-3.9156 6.4059-4.7417 1.3229-0.45567 2.5703-0.70638 3.9688-0.8891 5.494-0.71783 11.201-0.9209 16.669-1.6655 7.8994-1.0758 16.576-2.8199 24.342-3.5964 3.2847-0.32843 4.1494 0.13028 4.7625 0.50529 0.30541 0.1868 0.54643 0.64104 1.8521 0.31664 0.96953-0.24088 2.75-0.92108 3.7042-1.1949 2.6196-0.75174 5.569-1.9863 8.2021-2.9708 1.3521-0.50557 2.2025-0.58221 3.175-1.1094"
              fill="#fff" stroke="#250d0c" stroke-width="3.8"/>
        <path
                d="m0.78715 322.48c0.44531-0.46968 0.8821-0.8268 1.4948-1.8525 1.2095-2.0247 2.9488-4.4998 5.6489-5.3974 5.1298-1.7053 11.039 0.42213 13.295 5.3978 0.43026 0.94927 0.58516 1.901 0.72822 2.9104 0.34795 2.4552-0.0244 4.598-0.71964 6.8792-1.6361 5.3679-5.9536 10.873-9.365 15.346-1.5267 2.0018-2.5088 4.2174-4.4683 5.2576-0.9587 0.5089-1.8834 0.36441-2.9094 0.0378-1.9336-0.61558-4.0446-1.9052-5.8208-2.9141-6.9685-3.9579-17.307-8.6711-17.968-17.727-0.13159-1.8047 0.16266-3.7169 0.86215-5.2917 0.48727-1.097 1.1554-2.0355 2.035-2.8857 1.0163-0.9823 2.1497-1.7578 3.429-2.2802 3.4555-1.4109 7.0298-0.57781 10.054 1.0971 2.1867 1.211 2.66 0.56051 3.9687 2.2167"
                fill="#f00" stroke="#250d0c" stroke-width="3.2"/>
    <path
            d="m100.25 395.93c-9.3877-0.71959-29.002-3.5448-32.973-4.7494-1.7448-0.5293-4.6779-0.9655-6.518-0.96933-6.3059-0.0132-16.287-2.9559-23.352-6.8852-4.9224-2.7375-12.53-10.082-15.158-14.632-2.1446-3.7143-2.8774-9.3423-1.6863-12.951 1.0706-3.244 4.2866-6.7761 7.4395-8.1708 1.5872-0.7021 6.3404-1.5212 12.275-2.1152 5.3264-0.53316 14.318-1.693 19.98-2.5774 12.173-1.9012 13.974-2.0495 17.423-1.4353 2.1554 0.38383 3.8833 0.0122 9.8651-2.1216 5.5284-1.9721 7.613-2.4497 8.7708-2.0095 0.83532 0.31758 1.6743 0.82907 1.8644 1.1366 0.33755 0.54618 7.7161 39.078 9.7608 50.972 0.95861 5.5764 0.91232 7.3647-0.18486 7.1409-0.24508-0.05-3.6231-0.33446-7.5068-0.63217z"
            fill="#e6e6e6" stroke-width="12.488"/>
    </g>
    </g>
</svg>
